<svg xmlns="http://www.w3.org/2000/svg" viewBox="0 0 900 760" role="img" aria-labelledby="title desc">
<title id="title">ilustrasi ruang klinik gigi</title>
<desc id="desc">ruang klinik gigi modern dengan kursi perawatan dan dokter</desc>
<defs>
  <linearGradient id="bg" x1="0" y1="0" x2="1" y2="1"><stop offset="0" stop-color="#f8fffd"/><stop offset="1" stop-color="#d9f7ef"/></linearGradient>
  <linearGradient id="chair" x1="0" y1="0" x2="1" y2="1"><stop offset="0" stop-color="#0f766e"/><stop offset="1" stop-color="#58c5ba"/></linearGradient>
  <filter id="shadow" x="-20%" y="-20%" width="140%" height="140%"><feDropShadow dx="0" dy="24" stdDeviation="24" flood-color="#11324d" flood-opacity=".18"/></filter>
</defs>
<rect width="900" height="760" rx="44" fill="url(#bg)"/>
<circle cx="760" cy="130" r="190" fill="#ffffff" opacity=".7"/>
<circle cx="160" cy="640" r="170" fill="#ffffff" opacity=".65"/>
<path d="M110 530c120-70 255-104 405-100 90 3 178 20 265 52" fill="none" stroke="#b8e8df" stroke-width="34" stroke-linecap="round"/>
<rect x="112" y="118" width="286" height="210" rx="34" fill="#ffffff" filter="url(#shadow)"/>
<rect x="142" y="150" width="226" height="30" rx="15" fill="#d9f7ef"/>
<rect x="142" y="205" width="178" height="18" rx="9" fill="#d7e7e4"/>
<rect x="142" y="240" width="204" height="18" rx="9" fill="#d7e7e4"/>
<rect x="142" y="276" width="138" height="18" rx="9" fill="#d7e7e4"/>
<g filter="url(#shadow)">
  <path d="M278 510c-8-74 38-132 112-141l166-20c61-7 119 31 132 91l10 45c8 39-22 76-62 76H342c-33 0-60-21-64-51z" fill="url(#chair)"/>
  <path d="M355 455h270c30 0 55 24 55 55v24H326v-50c0-16 13-29 29-29z" fill="#ffffff" opacity=".22"/>
  <rect x="444" y="540" width="60" height="138" rx="28" fill="#0a4f49"/>
  <rect x="330" y="650" width="300" height="34" rx="17" fill="#11324d"/>
</g>
<g filter="url(#shadow)">
  <circle cx="625" cy="228" r="52" fill="#ffd8c2"/>
  <path d="M569 323c6-56 41-86 88-86 48 0 84 31 90 86l9 83H560l9-83z" fill="#ffffff"/>
  <path d="M602 245c21 23 68 21 92-1 0 41-18 70-46 70-27 0-46-29-46-69z" fill="#ffd8c2"/>
  <path d="M581 220c0-54 33-86 79-86 43 0 73 27 78 69-37-8-66-27-87-56-15 33-40 55-70 73z" fill="#11324d"/>
  <rect x="612" y="344" width="82" height="18" rx="9" fill="#d9f7ef"/>
</g>
<g>
  <path d="M720 180h70c20 0 36 16 36 36v72" fill="none" stroke="#0f766e" stroke-width="18" stroke-linecap="round"/>
  <circle cx="826" cy="305" r="28" fill="#ffffff" stroke="#0f766e" stroke-width="14"/>
  <path d="M796 302h-94" stroke="#0f766e" stroke-width="14" stroke-linecap="round"/>
</g>
<g opacity=".9">
  <circle cx="172" cy="408" r="52" fill="#ffffff"/>
  <path d="M172 374c-20 0-35 15-35 35 0 12 7 22 13 31 4 6 7 13 8 20 .4 4 4 7 8 7s7-3 8-7l2-11c.3-2 3-2 4 0l2 11c1 4 4 7 8 7s8-3 8-7c1-7 4-14 8-20 6-9 13-19 13-31 0-20-15-35-35-35-5 0-9 1-12 3-3-2-7-3-12-3z" fill="#0f766e"/>
</g>
</svg>