<svg xmlns="http://www.w3.org/2000/svg" viewBox="0 0 640 520" role="img" aria-label="avatar rafi pratama">
<defs><linearGradient id="bg" x1="0" y1="0" x2="1" y2="1"><stop offset="0" stop-color="#f4fbff"/><stop offset="1" stop-color="#cfefff"/></linearGradient><filter id="s"><feDropShadow dx="0" dy="18" stdDeviation="18" flood-color="#11324d" flood-opacity=".15"/></filter></defs>
<rect width="640" height="520" rx="32" fill="url(#bg)"/>
<circle cx="510" cy="112" r="110" fill="#fff" opacity=".45"/>
<circle cx="126" cy="420" r="140" fill="#fff" opacity=".55"/>
<g filter="url(#s)">
<circle cx="320" cy="170" r="74" fill="#ffd7c2"/>
<path d="M220 380c10-85 48-130 100-130s90 45 100 130l13 90H207l13-90z" fill="#ffffff"/>
<path d="M260 274h120l-60 88-60-88z" fill="#fff" opacity=".88"/>
<path d="M250 166c0-75 44-118 104-105 38 9 61 37 63 76-58 3-104-18-137-62-11 42-24 70-30 91z" fill="#11324d"/>
<rect x="286" y="390" width="68" height="16" rx="8" fill="#d9f7ef"/>
</g>
<text x="46" y="74" fill="#0a4f49" font-family="Arial, sans-serif" font-size="38" font-weight="800">rp</text>
</svg>